<mxfile host="app.diagrams.net" modified="2022-02-02T15:32:01.407Z" agent="5.0 (Macintosh; Intel Mac OS X 10_15_7) AppleWebKit/537.36 (KHTML, like Gecko) Chrome/97.0.4692.99 Safari/537.36" etag="ayV0iubezSdqGlRz6yhl" version="16.5.2" type="github">
  <diagram id="l8ND1sfAQXFVxoRxp-3u" name="Page-1">
    <mxGraphModel dx="1374" dy="1770" grid="1" gridSize="10" guides="1" tooltips="1" connect="1" arrows="1" fold="1" page="1" pageScale="1" pageWidth="850" pageHeight="1100" math="0" shadow="0">
      <root>
        <mxCell id="0" />
        <mxCell id="1" parent="0" />
        <mxCell id="pOQsP0odgBJNXpEQfqiO-1" value="" style="rounded=0;whiteSpace=wrap;html=1;" parent="1" vertex="1">
          <mxGeometry x="60" y="50" width="730" height="350" as="geometry" />
        </mxCell>
        <mxCell id="pOQsP0odgBJNXpEQfqiO-2" value="NavBar" style="rounded=1;whiteSpace=wrap;html=1;fillColor=#A9C4EB;" parent="1" vertex="1">
          <mxGeometry x="60" y="50" width="730" height="60" as="geometry" />
        </mxCell>
        <mxCell id="wJ-rxmhMNEWPxCiXdJcv-1" value="Header" style="rounded=0;whiteSpace=wrap;html=1;fillColor=#f8cecc;strokeColor=#b85450;" parent="1" vertex="1">
          <mxGeometry x="365" y="150" width="120" height="60" as="geometry" />
        </mxCell>
        <mxCell id="wJ-rxmhMNEWPxCiXdJcv-2" value="" style="swimlane;fontStyle=0;childLayout=stackLayout;horizontal=1;startSize=30;horizontalStack=0;resizeParent=1;resizeParentMax=0;resizeLast=0;collapsible=1;marginBottom=0;" parent="1" vertex="1">
          <mxGeometry x="230" y="270" width="385" height="120" as="geometry">
            <mxRectangle x="230" y="270" width="50" height="40" as="alternateBounds" />
          </mxGeometry>
        </mxCell>
        <mxCell id="wJ-rxmhMNEWPxCiXdJcv-3" value="employee 1" style="text;strokeColor=none;fillColor=none;align=left;verticalAlign=middle;spacingLeft=4;spacingRight=4;overflow=hidden;points=[[0,0.5],[1,0.5]];portConstraint=eastwest;rotatable=0;fontStyle=4" parent="wJ-rxmhMNEWPxCiXdJcv-2" vertex="1">
          <mxGeometry y="30" width="385" height="30" as="geometry" />
        </mxCell>
        <mxCell id="wJ-rxmhMNEWPxCiXdJcv-4" value="employee 2        " style="text;strokeColor=none;fillColor=none;align=left;verticalAlign=middle;spacingLeft=4;spacingRight=4;overflow=hidden;points=[[0,0.5],[1,0.5]];portConstraint=eastwest;rotatable=0;fontStyle=4" parent="wJ-rxmhMNEWPxCiXdJcv-2" vertex="1">
          <mxGeometry y="60" width="385" height="30" as="geometry" />
        </mxCell>
        <mxCell id="wJ-rxmhMNEWPxCiXdJcv-5" value="employee 3" style="text;strokeColor=none;fillColor=none;align=left;verticalAlign=middle;spacingLeft=4;spacingRight=4;overflow=hidden;points=[[0,0.5],[1,0.5]];portConstraint=eastwest;rotatable=0;fontStyle=4" parent="wJ-rxmhMNEWPxCiXdJcv-2" vertex="1">
          <mxGeometry y="90" width="385" height="30" as="geometry" />
        </mxCell>
        <mxCell id="wJ-rxmhMNEWPxCiXdJcv-6" value="" style="rounded=0;whiteSpace=wrap;html=1;" parent="1" vertex="1">
          <mxGeometry x="60" y="470" width="740" height="260" as="geometry" />
        </mxCell>
        <mxCell id="wJ-rxmhMNEWPxCiXdJcv-7" value="NavBar" style="rounded=1;whiteSpace=wrap;html=1;fillColor=#A9C4EB;" parent="1" vertex="1">
          <mxGeometry x="60" y="470" width="735" height="60" as="geometry" />
        </mxCell>
        <mxCell id="wJ-rxmhMNEWPxCiXdJcv-9" value="Emloyee&#39;s items" style="rounded=0;whiteSpace=wrap;html=1;fillColor=#f8cecc;strokeColor=#b85450;" parent="1" vertex="1">
          <mxGeometry x="360" y="540" width="120" height="60" as="geometry" />
        </mxCell>
        <mxCell id="wJ-rxmhMNEWPxCiXdJcv-10" value="employee name" style="swimlane;fontStyle=0;childLayout=stackLayout;horizontal=1;startSize=30;horizontalStack=0;resizeParent=1;resizeParentMax=0;resizeLast=0;collapsible=1;marginBottom=0;" parent="1" vertex="1">
          <mxGeometry x="227.5" y="600" width="385" height="120" as="geometry">
            <mxRectangle x="230" y="270" width="50" height="40" as="alternateBounds" />
          </mxGeometry>
        </mxCell>
        <mxCell id="wJ-rxmhMNEWPxCiXdJcv-11" value="item 1" style="text;strokeColor=none;fillColor=none;align=left;verticalAlign=middle;spacingLeft=4;spacingRight=4;overflow=hidden;points=[[0,0.5],[1,0.5]];portConstraint=eastwest;rotatable=0;fontStyle=0" parent="wJ-rxmhMNEWPxCiXdJcv-10" vertex="1">
          <mxGeometry y="30" width="385" height="30" as="geometry" />
        </mxCell>
        <mxCell id="wJ-rxmhMNEWPxCiXdJcv-12" value="item 2" style="text;strokeColor=none;fillColor=none;align=left;verticalAlign=middle;spacingLeft=4;spacingRight=4;overflow=hidden;points=[[0,0.5],[1,0.5]];portConstraint=eastwest;rotatable=0;fontStyle=0" parent="wJ-rxmhMNEWPxCiXdJcv-10" vertex="1">
          <mxGeometry y="60" width="385" height="30" as="geometry" />
        </mxCell>
        <mxCell id="wJ-rxmhMNEWPxCiXdJcv-13" value="item 3" style="text;strokeColor=none;fillColor=none;align=left;verticalAlign=middle;spacingLeft=4;spacingRight=4;overflow=hidden;points=[[0,0.5],[1,0.5]];portConstraint=eastwest;rotatable=0;fontStyle=0" parent="wJ-rxmhMNEWPxCiXdJcv-10" vertex="1">
          <mxGeometry y="90" width="385" height="30" as="geometry" />
        </mxCell>
        <mxCell id="n13PreYKc8gwWIrsvXBT-2" value="" style="rounded=0;whiteSpace=wrap;html=1;" vertex="1" parent="1">
          <mxGeometry x="60" y="-420" width="740" height="410" as="geometry" />
        </mxCell>
        <mxCell id="n13PreYKc8gwWIrsvXBT-3" value="NavBar" style="rounded=1;whiteSpace=wrap;html=1;fillColor=#A9C4EB;" vertex="1" parent="1">
          <mxGeometry x="60" y="-420" width="740" height="60" as="geometry" />
        </mxCell>
        <mxCell id="n13PreYKc8gwWIrsvXBT-4" value="&lt;font style=&quot;font-size: 30px&quot;&gt;Welcome to SolarWinds&amp;nbsp;&lt;br&gt;&lt;br&gt;Office App&lt;/font&gt;" style="rounded=0;whiteSpace=wrap;html=1;" vertex="1" parent="1">
          <mxGeometry x="165" y="-300" width="510" height="150" as="geometry" />
        </mxCell>
      </root>
    </mxGraphModel>
  </diagram>
</mxfile>
